<svg xmlns="http://www.w3.org/2000/svg" viewBox="0 0 610.34 610.34"><defs><style>.cls-1{fill:#96cff0;}.cls-2{fill:#fedf40;}.cls-2,.cls-3{opacity:0.8;}.cls-3{fill:#f8ada3;}.cls-4,.cls-5,.cls-6,.cls-7{fill:none;}.cls-5{stroke:#1a2453;stroke-miterlimit:10;}.cls-5,.cls-6,.cls-7{stroke-width:5px;}.cls-6{stroke:#fedf40;}.cls-6,.cls-7{stroke-linecap:round;stroke-linejoin:round;}.cls-7{stroke:#f8ada3;}</style></defs><title>Asset 1</title><g id="Layer_2" data-name="Layer 2"><g id="Final_Logo" data-name="Final Logo"><rect class="cls-1" width="610.34" height="610.34"/><path class="cls-2" d="M167,473l-19.37,33.53a4.1,4.1,0,0,1-5.75,1.37,110.25,110.25,0,0,1-.38-186.22,4.1,4.1,0,0,1,5.77,1.37l20.07,34.78a4,4,0,0,1-.71,5,71.92,71.92,0,0,0-.43,105.15A4.12,4.12,0,0,1,167,473Z"/><path class="cls-3" d="M423,517.17H320.82a4,4,0,0,1-4-4V338.48a4,4,0,0,1,7.52-2L426.44,511.1A4,4,0,0,1,423,517.17Z"/><path class="cls-3" d="M227,218.56H181.73a4,4,0,0,0-4,4v57.21a4,4,0,0,1-4,4h-76a4,4,0,0,1-4-4V92.71a4,4,0,0,1,4-4h76a4,4,0,0,1,4,4v56.92a4,4,0,0,0,4,4h9.06a4,4,0,0,1,3.4,1.87l36.21,56.83A4,4,0,0,1,227,218.56Z"/><path class="cls-2" d="M462.88,278a4,4,0,0,1-3.61,5.84H317.2a4,4,0,0,1-3.61-5.84l71-142.29a4,4,0,0,1,7.22,0Z"/><line class="cls-4" x1="196.5" y1="328.35" x2="196.43" y2="327.91"/><line class="cls-4" x1="195.8" y1="532.48" x2="195.57" y2="533.9"/><line class="cls-4" x1="160.84" y1="341.1" x2="160.66" y2="340.8"/><line class="cls-4" x1="212.92" y1="431.32" x2="212.66" y2="430.9"/><line class="cls-4" x1="161.19" y1="520.05" x2="161.17" y2="520.1"/><line class="cls-4" x1="212.92" y1="430.46" x2="212.66" y2="430.9"/><path class="cls-5" d="M289.27,80.48v187.1a4,4,0,0,1-4,4h-76a4,4,0,0,1-4-4V210.37a4,4,0,0,0-4-4H194a4,4,0,0,0-4,4v57.21a4,4,0,0,1-4,4H109.93a4,4,0,0,1-4-4V80.48a4,4,0,0,1,4-4h75.95a4,4,0,0,1,4,4V137.4a4,4,0,0,0,4,4h7.24a4,4,0,0,0,4-4V80.48a4,4,0,0,1,4-4h76A4,4,0,0,1,289.27,80.48Z"/><path class="cls-5" d="M519.39,265.78a4,4,0,0,1-3.61,5.84H335.54a4,4,0,0,1-3.61-5.84l90.12-180.5a4,4,0,0,1,7.22,0Z"/><path class="cls-5" d="M467.34,410.43,519,498.86a4,4,0,0,1-3.49,6.07H333.05a4,4,0,0,1-4-4V315.4a4,4,0,0,1,4-4H515.57a4,4,0,0,1,3.49,6.07l-51.73,88.93A4,4,0,0,0,467.34,410.43Z"/><path class="cls-5" d="M290.94,471.72a4.07,4.07,0,0,1-.2,4.62A104.31,104.31,0,0,1,207,518.21c-57.57,0-104.23-46.3-104.23-103.42S149.41,311.36,207,311.36a104.31,104.31,0,0,1,83.65,41.73,4,4,0,0,1,.15,4.55L258,409.33a9.76,9.76,0,0,0,0,10.49Z"/><polyline class="cls-6" points="455.94 381.77 486.23 329.7 407.56 329.7"/><line class="cls-7" x1="425.66" y1="114.71" x2="459.77" y2="183.03"/><polyline class="cls-6" points="217.39 94.79 249.92 94.79 270.93 94.79 270.93 173.91"/><path class="cls-7" d="M248.31,387.43l20.31-32a77.3,77.3,0,0,0-59.11-27.55"/></g></g></svg>